<svg width="146.82" height="41.939" viewBox="-2 -2 146.82 41.939" xmlns="http://www.w3.org/2000/svg">
  <g id="svgGroup" stroke-linecap="round" fill-rule="nonzero" fill="#f78710" stroke="#fcfcfc" stroke-width="0.4" vector-effect="non-scaling-stroke">
      <path d="M14.167 7.366L14.167 28.831L7.383 28.831L7.383 7.366L0.684 7.366L0.684 4.221L20.867 4.221L20.867 7.366L14.167 7.366ZM42.793 18.918L42.793 18.918Q42.793 20.457 42.383 21.807Q41.973 23.157 41.246 24.302Q40.520 25.447 39.495 26.361Q38.469 27.275 37.247 27.908Q36.025 28.540 34.633 28.882Q33.240 29.224 31.770 29.224L31.770 29.224Q30.300 29.224 28.916 28.882Q27.532 28.540 26.310 27.908Q25.088 27.275 24.063 26.361Q23.037 25.447 22.311 24.302Q21.584 23.157 21.174 21.798Q20.764 20.439 20.764 18.918L20.764 18.918Q20.764 17.397 21.174 16.039Q21.584 14.680 22.311 13.535Q23.037 12.390 24.063 11.476Q25.088 10.562 26.310 9.929Q27.532 9.297 28.916 8.955Q30.300 8.613 31.770 8.613L31.770 8.613Q33.240 8.613 34.633 8.955Q36.025 9.297 37.247 9.929Q38.469 10.562 39.495 11.476Q40.520 12.390 41.246 13.535Q41.973 14.680 42.383 16.039Q42.793 17.397 42.793 18.918ZM36.914 18.918L36.914 18.918Q36.914 18.098 36.820 17.184Q36.726 16.270 36.504 15.389Q36.282 14.509 35.897 13.698Q35.513 12.886 34.949 12.279Q34.385 11.672 33.599 11.305Q32.813 10.938 31.770 10.938L31.770 10.938Q30.779 10.938 30.010 11.313Q29.241 11.689 28.668 12.313Q28.096 12.937 27.711 13.757Q27.327 14.578 27.087 15.458Q26.848 16.338 26.746 17.235Q26.643 18.132 26.643 18.918L26.643 18.918Q26.643 19.705 26.746 20.602Q26.848 21.499 27.087 22.388Q27.327 23.276 27.711 24.088Q28.096 24.900 28.668 25.524Q29.241 26.147 30.010 26.523Q30.779 26.899 31.770 26.899L31.770 26.899Q32.795 26.899 33.582 26.532Q34.368 26.165 34.940 25.549Q35.513 24.934 35.889 24.131Q36.265 23.328 36.495 22.439Q36.726 21.550 36.820 20.645Q36.914 19.739 36.914 18.918ZM76.973 17.312L76.973 17.312Q76.973 19.346 76.494 21.550Q76.016 23.755 75.153 25.848Q74.290 27.942 73.076 29.805Q71.863 31.667 70.376 33.035L70.376 33.035L68.206 31.855Q68.701 30.967 69.111 29.856Q69.521 28.745 69.863 27.515Q70.205 26.284 70.461 24.985Q70.718 23.687 70.897 22.396Q71.077 21.106 71.162 19.893Q71.248 18.679 71.248 17.620L71.248 17.620Q71.248 17.021 71.213 16.321Q71.179 15.620 71.068 14.919Q70.957 14.219 70.735 13.578Q70.513 12.937 70.128 12.433Q69.744 11.929 69.171 11.630Q68.599 11.331 67.795 11.331L67.795 11.331Q67.009 11.331 66.454 11.749Q65.898 12.168 65.505 12.834Q65.112 13.501 64.882 14.338Q64.651 15.176 64.531 16.022Q64.412 16.868 64.369 17.637Q64.326 18.406 64.326 18.936L64.326 18.936L64.326 28.831L58.567 28.831L58.567 19.636Q58.567 19.038 58.584 18.192Q58.601 17.346 58.541 16.423Q58.481 15.500 58.319 14.586Q58.157 13.672 57.806 12.954Q57.456 12.236 56.858 11.783Q56.260 11.331 55.354 11.331L55.354 11.331Q54.585 11.331 54.064 11.758Q53.542 12.185 53.192 12.860Q52.842 13.535 52.645 14.381Q52.449 15.227 52.355 16.073Q52.261 16.919 52.244 17.679Q52.227 18.440 52.227 18.936L52.227 18.936L52.227 28.831L46.433 28.831L46.433 9.092L48.655 9.092L50.774 13.689Q51.492 11.296 53.038 9.955Q54.585 8.613 57.148 8.613L57.148 8.613Q59.456 8.613 60.977 9.570Q62.498 10.527 63.369 12.681L63.369 12.681Q63.865 11.741 64.471 10.989Q65.078 10.237 65.822 9.707Q66.565 9.177 67.471 8.895Q68.376 8.613 69.470 8.613L69.470 8.613Q71.487 8.613 72.914 9.271Q74.341 9.929 75.247 11.091Q76.152 12.253 76.563 13.851Q76.973 15.449 76.973 17.312ZM100.693 9.092L100.693 28.831L94.917 28.831L94.917 26.472Q93.892 27.874 92.448 28.549Q91.003 29.224 89.277 29.224L89.277 29.224Q87.021 29.224 85.244 28.420Q83.467 27.617 82.236 26.224Q81.006 24.832 80.356 22.952Q79.707 21.072 79.707 18.918L79.707 18.918Q79.707 16.765 80.356 14.885Q81.006 13.005 82.236 11.613Q83.467 10.220 85.244 9.417Q87.021 8.613 89.277 8.613L89.277 8.613Q90.422 8.613 91.456 8.955Q92.490 9.297 93.353 9.921Q94.216 10.544 94.874 11.425Q95.532 12.305 95.908 13.381L95.908 13.381L98.472 9.092L100.693 9.092ZM94.883 18.918L94.883 18.918Q94.883 18.149 94.806 17.295Q94.729 16.440 94.541 15.603Q94.353 14.766 94.020 14.005Q93.687 13.245 93.165 12.655Q92.644 12.065 91.909 11.724Q91.174 11.382 90.200 11.382L90.200 11.382Q89.226 11.382 88.508 11.732Q87.791 12.083 87.278 12.672Q86.765 13.262 86.432 14.031Q86.099 14.800 85.911 15.637Q85.723 16.475 85.646 17.321Q85.569 18.167 85.569 18.918L85.569 18.918Q85.569 19.670 85.646 20.525Q85.723 21.379 85.911 22.217Q86.099 23.054 86.432 23.823Q86.765 24.592 87.278 25.182Q87.791 25.771 88.508 26.122Q89.226 26.472 90.200 26.472L90.200 26.472Q91.089 26.472 91.781 26.105Q92.473 25.737 92.994 25.122Q93.516 24.507 93.875 23.721Q94.233 22.935 94.456 22.097Q94.678 21.260 94.780 20.431Q94.883 19.602 94.883 18.918ZM112.947 11.382L112.947 28.831L107.153 28.831L107.153 11.382L103.564 11.382L103.564 9.092L107.153 9.092L107.153 1.829L112.947 1.829L112.947 9.092L118.928 9.092L118.928 11.382L112.947 11.382ZM141.589 18.918L141.589 18.918Q141.589 20.457 141.179 21.807Q140.769 23.157 140.043 24.302Q139.316 25.447 138.291 26.361Q137.266 27.275 136.044 27.908Q134.822 28.540 133.429 28.882Q132.036 29.224 130.566 29.224L130.566 29.224Q129.097 29.224 127.712 28.882Q126.328 28.540 125.106 27.908Q123.884 27.275 122.859 26.361Q121.833 25.447 121.107 24.302Q120.381 23.157 119.971 21.798Q119.561 20.439 119.561 18.918L119.561 18.918Q119.561 17.397 119.971 16.039Q120.381 14.680 121.107 13.535Q121.833 12.390 122.859 11.476Q123.884 10.562 125.106 9.929Q126.328 9.297 127.712 8.955Q129.097 8.613 130.566 8.613L130.566 8.613Q132.036 8.613 133.429 8.955Q134.822 9.297 136.044 9.929Q137.266 10.562 138.291 11.476Q139.316 12.390 140.043 13.535Q140.769 14.680 141.179 16.039Q141.589 17.397 141.589 18.918ZM135.710 18.918L135.710 18.918Q135.710 18.098 135.616 17.184Q135.522 16.270 135.300 15.389Q135.078 14.509 134.694 13.698Q134.309 12.886 133.745 12.279Q133.181 11.672 132.395 11.305Q131.609 10.938 130.566 10.938L130.566 10.938Q129.575 10.938 128.806 11.313Q128.037 11.689 127.465 12.313Q126.892 12.937 126.508 13.757Q126.123 14.578 125.884 15.458Q125.645 16.338 125.542 17.235Q125.439 18.132 125.439 18.918L125.439 18.918Q125.439 19.705 125.542 20.602Q125.645 21.499 125.884 22.388Q126.123 23.276 126.508 24.088Q126.892 24.900 127.465 25.524Q128.037 26.147 128.806 26.523Q129.575 26.899 130.566 26.899L130.566 26.899Q131.592 26.899 132.378 26.532Q133.164 26.165 133.737 25.549Q134.309 24.934 134.685 24.131Q135.061 23.328 135.292 22.439Q135.522 21.550 135.616 20.645Q135.710 19.739 135.710 18.918Z" />
  </g>
</svg>